<svg width="16" height="17" viewBox="0 0 16 17" fill="none" xmlns="http://www.w3.org/2000/svg">
<g id="Calendar">
<path id="Vector" d="M8.00004 9.83325C8.13189 9.83325 8.26079 9.79415 8.37042 9.7209C8.48005 9.64764 8.5655 9.54352 8.61596 9.42171C8.66642 9.29989 8.67962 9.16585 8.6539 9.03652C8.62817 8.9072 8.56468 8.78842 8.47144 8.69518C8.37821 8.60195 8.25942 8.53845 8.1301 8.51273C8.00078 8.487 7.86673 8.50021 7.74492 8.55066C7.6231 8.60112 7.51898 8.68657 7.44573 8.7962C7.37247 8.90584 7.33337 9.03473 7.33337 9.16658C7.33337 9.3434 7.40361 9.51297 7.52864 9.63799C7.65366 9.76301 7.82323 9.83325 8.00004 9.83325ZM11.3334 9.83325C11.4652 9.83325 11.5941 9.79415 11.7038 9.7209C11.8134 9.64764 11.8988 9.54352 11.9493 9.42171C11.9998 9.29989 12.013 9.16585 11.9872 9.03652C11.9615 8.9072 11.898 8.78842 11.8048 8.69518C11.7115 8.60195 11.5928 8.53845 11.4634 8.51273C11.3341 8.487 11.2001 8.50021 11.0783 8.55066C10.9564 8.60112 10.8523 8.68657 10.7791 8.7962C10.7058 8.90584 10.6667 9.03473 10.6667 9.16658C10.6667 9.3434 10.7369 9.51297 10.862 9.63799C10.987 9.76301 11.1566 9.83325 11.3334 9.83325ZM8.00004 12.4999C8.13189 12.4999 8.26079 12.4608 8.37042 12.3876C8.48005 12.3143 8.5655 12.2102 8.61596 12.0884C8.66642 11.9666 8.67962 11.8325 8.6539 11.7032C8.62817 11.5739 8.56468 11.4551 8.47144 11.3618C8.37821 11.2686 8.25942 11.2051 8.1301 11.1794C8.00078 11.1537 7.86673 11.1669 7.74492 11.2173C7.6231 11.2678 7.51898 11.3532 7.44573 11.4629C7.37247 11.5725 7.33337 11.7014 7.33337 11.8333C7.33337 12.0101 7.40361 12.1796 7.52864 12.3047C7.65366 12.4297 7.82323 12.4999 8.00004 12.4999ZM11.3334 12.4999C11.4652 12.4999 11.5941 12.4608 11.7038 12.3876C11.8134 12.3143 11.8988 12.2102 11.9493 12.0884C11.9998 11.9666 12.013 11.8325 11.9872 11.7032C11.9615 11.5739 11.898 11.4551 11.8048 11.3618C11.7115 11.2686 11.5928 11.2051 11.4634 11.1794C11.3341 11.1537 11.2001 11.1669 11.0783 11.2173C10.9564 11.2678 10.8523 11.3532 10.7791 11.4629C10.7058 11.5725 10.6667 11.7014 10.6667 11.8333C10.6667 12.0101 10.7369 12.1796 10.862 12.3047C10.987 12.4297 11.1566 12.4999 11.3334 12.4999ZM4.66671 9.83325C4.79856 9.83325 4.92745 9.79415 5.03709 9.7209C5.14672 9.64764 5.23217 9.54352 5.28263 9.42171C5.33309 9.29989 5.34629 9.16585 5.32056 9.03652C5.29484 8.9072 5.23135 8.78842 5.13811 8.69518C5.04488 8.60195 4.92609 8.53845 4.79677 8.51273C4.66745 8.487 4.5334 8.50021 4.41159 8.55066C4.28977 8.60112 4.18565 8.68657 4.11239 8.7962C4.03914 8.90584 4.00004 9.03473 4.00004 9.16658C4.00004 9.3434 4.07028 9.51297 4.1953 9.63799C4.32033 9.76301 4.4899 9.83325 4.66671 9.83325ZM12.6667 3.16659H12V2.49992C12 2.32311 11.9298 2.15354 11.8048 2.02851C11.6798 1.90349 11.5102 1.83325 11.3334 1.83325C11.1566 1.83325 10.987 1.90349 10.862 2.02851C10.7369 2.15354 10.6667 2.32311 10.6667 2.49992V3.16659H5.33337V2.49992C5.33337 2.32311 5.26314 2.15354 5.13811 2.02851C5.01309 1.90349 4.84352 1.83325 4.66671 1.83325C4.4899 1.83325 4.32033 1.90349 4.1953 2.02851C4.07028 2.15354 4.00004 2.32311 4.00004 2.49992V3.16659H3.33337C2.80294 3.16659 2.29423 3.3773 1.91916 3.75237C1.54409 4.12744 1.33337 4.63615 1.33337 5.16658V13.1666C1.33337 13.697 1.54409 14.2057 1.91916 14.5808C2.29423 14.9559 2.80294 15.1666 3.33337 15.1666H12.6667C13.1971 15.1666 13.7058 14.9559 14.0809 14.5808C14.456 14.2057 14.6667 13.697 14.6667 13.1666V5.16658C14.6667 4.63615 14.456 4.12744 14.0809 3.75237C13.7058 3.3773 13.1971 3.16659 12.6667 3.16659ZM13.3334 13.1666C13.3334 13.3434 13.2631 13.513 13.1381 13.638C13.0131 13.763 12.8435 13.8333 12.6667 13.8333H3.33337C3.15656 13.8333 2.98699 13.763 2.86197 13.638C2.73695 13.513 2.66671 13.3434 2.66671 13.1666V7.16658H13.3334V13.1666ZM13.3334 5.83325H2.66671V5.16658C2.66671 4.98977 2.73695 4.8202 2.86197 4.69518C2.98699 4.57016 3.15656 4.49992 3.33337 4.49992H12.6667C12.8435 4.49992 13.0131 4.57016 13.1381 4.69518C13.2631 4.8202 13.3334 4.98977 13.3334 5.16658V5.83325ZM4.66671 12.4999C4.79856 12.4999 4.92745 12.4608 5.03709 12.3876C5.14672 12.3143 5.23217 12.2102 5.28263 12.0884C5.33309 11.9666 5.34629 11.8325 5.32056 11.7032C5.29484 11.5739 5.23135 11.4551 5.13811 11.3618C5.04488 11.2686 4.92609 11.2051 4.79677 11.1794C4.66745 11.1537 4.5334 11.1669 4.41159 11.2173C4.28977 11.2678 4.18565 11.3532 4.11239 11.4629C4.03914 11.5725 4.00004 11.7014 4.00004 11.8333C4.00004 12.0101 4.07028 12.1796 4.1953 12.3047C4.32033 12.4297 4.4899 12.4999 4.66671 12.4999Z" fill="white"/>
</g>
</svg>
