<svg width="16" height="17" viewBox="0 0 16 17" fill="none" xmlns="http://www.w3.org/2000/svg">
<path d="M8.00004 9.8335C8.13189 9.8335 8.26079 9.7944 8.37042 9.72114C8.48005 9.64789 8.5655 9.54377 8.61596 9.42195C8.66642 9.30013 8.67962 9.16609 8.6539 9.03677C8.62817 8.90745 8.56468 8.78866 8.47144 8.69542C8.37821 8.60219 8.25942 8.5387 8.1301 8.51297C8.00078 8.48725 7.86673 8.50045 7.74492 8.55091C7.6231 8.60137 7.51898 8.68682 7.44573 8.79645C7.37247 8.90608 7.33337 9.03497 7.33337 9.16683C7.33337 9.34364 7.40361 9.51321 7.52864 9.63823C7.65366 9.76326 7.82323 9.8335 8.00004 9.8335ZM11.3334 9.8335C11.4652 9.8335 11.5941 9.7944 11.7038 9.72114C11.8134 9.64789 11.8988 9.54377 11.9493 9.42195C11.9998 9.30013 12.013 9.16609 11.9872 9.03677C11.9615 8.90745 11.898 8.78866 11.8048 8.69542C11.7115 8.60219 11.5928 8.5387 11.4634 8.51297C11.3341 8.48725 11.2001 8.50045 11.0783 8.55091C10.9564 8.60137 10.8523 8.68682 10.7791 8.79645C10.7058 8.90608 10.6667 9.03497 10.6667 9.16683C10.6667 9.34364 10.7369 9.51321 10.862 9.63823C10.987 9.76326 11.1566 9.8335 11.3334 9.8335ZM8.00004 12.5002C8.13189 12.5002 8.26079 12.4611 8.37042 12.3878C8.48005 12.3146 8.5655 12.2104 8.61596 12.0886C8.66642 11.9668 8.67962 11.8328 8.6539 11.7034C8.62817 11.5741 8.56468 11.4553 8.47144 11.3621C8.37821 11.2689 8.25942 11.2054 8.1301 11.1796C8.00078 11.1539 7.86673 11.1671 7.74492 11.2176C7.6231 11.268 7.51898 11.3535 7.44573 11.4631C7.37247 11.5727 7.33337 11.7016 7.33337 11.8335C7.33337 12.0103 7.40361 12.1799 7.52864 12.3049C7.65366 12.4299 7.82323 12.5002 8.00004 12.5002ZM11.3334 12.5002C11.4652 12.5002 11.5941 12.4611 11.7038 12.3878C11.8134 12.3146 11.8988 12.2104 11.9493 12.0886C11.9998 11.9668 12.013 11.8328 11.9872 11.7034C11.9615 11.5741 11.898 11.4553 11.8048 11.3621C11.7115 11.2689 11.5928 11.2054 11.4634 11.1796C11.3341 11.1539 11.2001 11.1671 11.0783 11.2176C10.9564 11.268 10.8523 11.3535 10.7791 11.4631C10.7058 11.5727 10.6667 11.7016 10.6667 11.8335C10.6667 12.0103 10.7369 12.1799 10.862 12.3049C10.987 12.4299 11.1566 12.5002 11.3334 12.5002ZM4.66671 9.8335C4.79856 9.8335 4.92745 9.7944 5.03709 9.72114C5.14672 9.64789 5.23217 9.54377 5.28263 9.42195C5.33309 9.30013 5.34629 9.16609 5.32056 9.03677C5.29484 8.90745 5.23135 8.78866 5.13811 8.69542C5.04488 8.60219 4.92609 8.5387 4.79677 8.51297C4.66745 8.48725 4.5334 8.50045 4.41159 8.55091C4.28977 8.60137 4.18565 8.68682 4.11239 8.79645C4.03914 8.90608 4.00004 9.03497 4.00004 9.16683C4.00004 9.34364 4.07028 9.51321 4.1953 9.63823C4.32033 9.76326 4.4899 9.8335 4.66671 9.8335ZM12.6667 3.16683H12V2.50016C12 2.32335 11.9298 2.15378 11.8048 2.02876C11.6798 1.90373 11.5102 1.8335 11.3334 1.8335C11.1566 1.8335 10.987 1.90373 10.862 2.02876C10.7369 2.15378 10.6667 2.32335 10.6667 2.50016V3.16683H5.33337V2.50016C5.33337 2.32335 5.26314 2.15378 5.13811 2.02876C5.01309 1.90373 4.84352 1.8335 4.66671 1.8335C4.4899 1.8335 4.32033 1.90373 4.1953 2.02876C4.07028 2.15378 4.00004 2.32335 4.00004 2.50016V3.16683H3.33337C2.80294 3.16683 2.29423 3.37754 1.91916 3.75262C1.54409 4.12769 1.33337 4.6364 1.33337 5.16683V13.1668C1.33337 13.6973 1.54409 14.206 1.91916 14.581C2.29423 14.9561 2.80294 15.1668 3.33337 15.1668H12.6667C13.1971 15.1668 13.7058 14.9561 14.0809 14.581C14.456 14.206 14.6667 13.6973 14.6667 13.1668V5.16683C14.6667 4.6364 14.456 4.12769 14.0809 3.75262C13.7058 3.37754 13.1971 3.16683 12.6667 3.16683ZM13.3334 13.1668C13.3334 13.3436 13.2631 13.5132 13.1381 13.6382C13.0131 13.7633 12.8435 13.8335 12.6667 13.8335H3.33337C3.15656 13.8335 2.98699 13.7633 2.86197 13.6382C2.73695 13.5132 2.66671 13.3436 2.66671 13.1668V7.16683H13.3334V13.1668ZM13.3334 5.8335H2.66671V5.16683C2.66671 4.99002 2.73695 4.82045 2.86197 4.69542C2.98699 4.5704 3.15656 4.50016 3.33337 4.50016H12.6667C12.8435 4.50016 13.0131 4.5704 13.1381 4.69542C13.2631 4.82045 13.3334 4.99002 13.3334 5.16683V5.8335ZM4.66671 12.5002C4.79856 12.5002 4.92745 12.4611 5.03709 12.3878C5.14672 12.3146 5.23217 12.2104 5.28263 12.0886C5.33309 11.9668 5.34629 11.8328 5.32056 11.7034C5.29484 11.5741 5.23135 11.4553 5.13811 11.3621C5.04488 11.2689 4.92609 11.2054 4.79677 11.1796C4.66745 11.1539 4.5334 11.1671 4.41159 11.2176C4.28977 11.268 4.18565 11.3535 4.11239 11.4631C4.03914 11.5727 4.00004 11.7016 4.00004 11.8335C4.00004 12.0103 4.07028 12.1799 4.1953 12.3049C4.32033 12.4299 4.4899 12.5002 4.66671 12.5002Z" fill="white"/>
</svg>
