<svg width="165" height="24" viewBox="0 0 165 24" fill="none" xmlns="http://www.w3.org/2000/svg">
<path d="M9.60547 9.61719C7.83203 9.96875 6.34766 10.3828 5.15234 10.8594C4.43359 11.9141 3.64453 13.1797 2.78516 14.6562L2.16406 15.7461C2.05469 15.9414 1.88672 16.2227 1.66016 16.5898C1.41016 17.0195 1.14844 17.2344 0.875 17.2344C0.726562 17.2344 0.601562 17.1758 0.5 17.0586C0.398438 16.957 0.347656 16.8438 0.347656 16.7188C0.347656 16.5 0.640625 15.8789 1.22656 14.8555C1.54688 14.3008 2.03125 13.5156 2.67969 12.5C2.92969 12.1094 3.12891 11.7891 3.27734 11.5391C2.80859 11.6719 2.37891 11.8242 1.98828 11.9961C1.80078 12.082 1.64453 12.125 1.51953 12.125C1.36328 12.125 1.24219 12.0547 1.15625 11.9141C1.09375 11.8281 1.0625 11.7266 1.0625 11.6094C1.0625 11.3438 1.15625 11.1562 1.34375 11.0469C1.64844 10.8594 2.19531 10.6445 2.98438 10.4023C3.57031 10.2148 4.03516 10.043 4.37891 9.88672C4.54297 9.68359 4.97266 9.08594 5.66797 8.09375C5.96484 7.66406 6.80859 6.64844 8.19922 5.04688C9.19922 3.875 10.2305 2.78516 11.293 1.77734C11.9102 1.18359 12.3828 0.886719 12.7109 0.886719C12.9141 0.886719 13.0898 0.96875 13.2383 1.13281C13.3633 1.28125 13.4258 1.44531 13.4258 1.625C13.4258 1.84375 13.3164 2.22656 13.0977 2.77344C12.7227 3.73438 12.3633 4.76172 12.0195 5.85547C11.7227 6.82422 11.5234 7.56641 11.4219 8.08203C11.5625 8.08203 11.6562 8.07812 11.7031 8.07031C11.9297 8.0625 12.1172 8.05859 12.2656 8.05859C12.7188 8.05859 12.9453 8.23047 12.9453 8.57422C12.9453 8.72266 12.8945 8.87109 12.793 9.01953C12.6992 9.16016 12.5898 9.24609 12.4648 9.27734C12.418 9.29297 12.2891 9.30078 12.0781 9.30078C11.6328 9.30078 11.3008 9.32812 11.082 9.38281C10.8945 9.9375 10.5977 11.3555 10.1914 13.6367C9.98047 15.1523 9.87891 16.082 9.88672 16.4258C9.88672 16.9883 9.71875 17.2695 9.38281 17.2695C9.11719 17.2695 8.91016 17.1328 8.76172 16.8594C8.65234 16.6719 8.59766 16.418 8.59766 16.0977C8.59766 15.0195 8.78906 13.5664 9.17188 11.7383C9.36719 10.8164 9.51172 10.1094 9.60547 9.61719ZM9.93359 8.35156C10.0039 8.125 10.1836 7.51953 10.4727 6.53516C10.543 6.27734 10.7227 5.76562 11.0117 5C11.3008 4.21094 11.5312 3.57813 11.7031 3.10156C11.1953 3.4375 10.6797 3.88281 10.1562 4.4375C8.3125 6.42188 7.01172 8.04297 6.25391 9.30078C6.54297 9.23047 7.16406 9.05469 8.11719 8.77344C8.39062 8.69531 8.99609 8.55469 9.93359 8.35156ZM14.1406 12.2305C14.9062 11.4102 15.7891 10.6094 16.7891 9.82812C17.1484 9.54688 17.5312 9.28516 17.9375 9.04297C18.1406 8.92578 18.2695 8.86719 18.3242 8.86719C18.4414 8.86719 18.5586 8.95312 18.6758 9.125C18.7461 9.21875 18.7812 9.30469 18.7812 9.38281C18.7812 9.52344 18.6328 9.71484 18.3359 9.95703C17.5391 10.5898 17.1406 11.0664 17.1406 11.3867C17.1406 11.5664 17.2422 11.6562 17.4453 11.6562C17.7812 11.6562 18.3594 11.3789 19.1797 10.8242C19.3203 10.7305 19.4375 10.6836 19.5312 10.6836C19.5938 10.6836 19.6562 10.7148 19.7188 10.7773C19.7891 10.8477 19.8242 10.9219 19.8242 11C19.8242 11.2344 19.4961 11.5938 18.8398 12.0781C18.1523 12.5938 17.5 12.8516 16.8828 12.8516C16.6328 12.8516 16.4023 12.7852 16.1914 12.6523C16.0117 12.543 15.9219 12.3477 15.9219 12.0664C15.9219 11.8711 16.0039 11.6484 16.168 11.3984C15.5508 11.8359 14.8242 12.5859 13.9883 13.6484C13.5039 14.3047 13.0234 15.1133 12.5469 16.0742C12.3672 16.4336 12.1445 16.6133 11.8789 16.6133C11.5898 16.6133 11.4453 16.4766 11.4453 16.2031C11.4453 15.9375 11.6719 15.2266 12.125 14.0703C12.7969 12.3516 13.5 11.0195 14.2344 10.0742C14.6875 9.48828 15.0664 9.19531 15.3711 9.19531C15.4727 9.19531 15.5664 9.22656 15.6523 9.28906C15.7539 9.36719 15.8047 9.46484 15.8047 9.58203C15.8047 9.69922 15.7266 9.86328 15.5703 10.0742C15.5391 10.1133 15.332 10.375 14.9492 10.8594C14.5977 11.3203 14.3281 11.7773 14.1406 12.2305ZM23.6328 8.53906C23.125 9.32812 22.6562 10.2109 22.2266 11.1875C21.6094 12.5781 21.3008 13.6172 21.3008 14.3047C21.3008 14.5 21.3398 14.6484 21.418 14.75C21.5039 14.8516 21.6289 14.9023 21.793 14.9023C22.1836 14.9023 22.6562 14.5352 23.2109 13.8008C23.5625 13.3477 23.875 12.8945 24.1484 12.4414C24.2969 12.1836 24.457 12.0547 24.6289 12.0547C24.7305 12.0547 24.8164 12.0898 24.8867 12.1602C24.9492 12.2305 24.9805 12.3008 24.9805 12.3711C24.9805 12.6602 24.6016 13.3047 23.8438 14.3047C22.9375 15.5078 22.1094 16.1094 21.3594 16.1094C20.9609 16.1094 20.6289 15.9258 20.3633 15.5586C20.1992 15.3242 20.1172 14.9922 20.1172 14.5625C20.1172 13.6172 20.3906 12.5156 20.9375 11.2578C21.0703 10.9453 21.4375 10.1914 22.0391 8.99609C21.8281 9.05078 21.668 9.07812 21.5586 9.07812C21.3945 9.07812 21.25 9.03906 21.125 8.96094C20.9531 8.85156 20.8672 8.71484 20.8672 8.55078C20.8672 8.35547 20.9805 8.19922 21.207 8.08203C21.2695 8.05078 21.5586 8 22.0742 7.92969C22.2617 7.89844 22.5352 7.82422 22.8945 7.70703C23.168 7.21484 23.6133 6.54688 24.2305 5.70312C24.5742 5.23438 24.8125 4.92969 24.9453 4.78906C25.1328 4.59375 25.2969 4.49609 25.4375 4.49609C25.5391 4.49609 25.6406 4.55078 25.7422 4.66016C25.8359 4.76172 25.8828 4.86328 25.8828 4.96484C25.8828 5.16797 25.6641 5.57031 25.2266 6.17188C24.9375 6.5625 24.7227 6.87891 24.582 7.12109C25.4492 6.88672 26.0703 6.76953 26.4453 6.76953C26.875 6.76953 27.0898 6.94922 27.0898 7.30859C27.0898 7.48828 27.0156 7.62109 26.8672 7.70703C26.7891 7.75391 26.5859 7.79297 26.2578 7.82422C26.125 7.81641 25.5352 7.96484 24.4883 8.26953C24.1992 8.35547 23.9141 8.44531 23.6328 8.53906ZM28.2734 9.06641C28.4062 9.06641 28.5156 9.11719 28.6016 9.21875C28.6641 9.30469 28.6953 9.39062 28.6953 9.47656C28.6953 9.61719 28.582 9.85156 28.3555 10.1797C27.543 11.4375 26.9648 12.4727 26.6211 13.2852C26.2539 14.1211 25.9297 14.9805 25.6484 15.8633C25.5234 16.2539 25.3281 16.4492 25.0625 16.4492C24.9062 16.4492 24.7812 16.3867 24.6875 16.2617C24.6016 16.1602 24.5586 16.0508 24.5586 15.9336C24.5586 15.6992 24.8086 14.918 25.3086 13.5898C25.6992 12.543 26.332 11.3867 27.207 10.1211C27.4883 9.70703 27.6992 9.42969 27.8398 9.28906C27.9805 9.14062 28.125 9.06641 28.2734 9.06641ZM30.5 4.71875C30.8516 4.71875 31.0273 4.89844 31.0273 5.25781C31.0273 5.58594 30.8555 5.94922 30.5117 6.34766C30.1836 6.73047 29.8672 6.92188 29.5625 6.92188C29.4141 6.92188 29.293 6.86719 29.1992 6.75781C29.1055 6.65625 29.0586 6.53125 29.0586 6.38281C29.0586 6.00781 29.2656 5.60938 29.6797 5.1875C29.9844 4.875 30.2578 4.71875 30.5 4.71875ZM33.7461 8.30469C34.2305 8.30469 34.5938 8.39062 34.8359 8.5625C35.0781 8.73438 35.1992 8.99609 35.1992 9.34766C35.1992 9.80859 35.0273 10.2539 34.6836 10.6836C34.3555 11.0898 33.8633 11.418 33.207 11.668C32.8477 11.8008 32.5469 11.8672 32.3047 11.8672C31.9766 11.8672 31.8125 11.7227 31.8125 11.4336C31.8125 11.2383 31.9062 11.0898 32.0938 10.9883C32.1406 10.9648 32.4062 10.8984 32.8906 10.7891C33.1797 10.7266 33.4453 10.5898 33.6875 10.3789C33.8984 10.1992 34.0039 10.0039 34.0039 9.79297C34.0039 9.62891 33.957 9.50781 33.8633 9.42969C33.7695 9.35156 33.6289 9.3125 33.4414 9.3125C32.9883 9.3125 32.4883 9.49609 31.9414 9.86328C31.3086 10.2773 30.9922 10.7695 30.9922 11.3398C30.9922 11.7461 31.1992 12.2539 31.6133 12.8633C32.0742 13.5273 32.3047 14.0898 32.3047 14.5508C32.3047 15.2383 32 15.7773 31.3906 16.168C31.0156 16.4102 30.5898 16.5312 30.1133 16.5312C29.3633 16.5312 28.793 16.2617 28.4023 15.7227C28.1289 15.3398 27.9922 14.8867 27.9922 14.3633C27.9922 13.7539 28.1484 13.2422 28.4609 12.8281C28.6641 12.5547 28.875 12.418 29.0938 12.418C29.2891 12.418 29.3867 12.4961 29.3867 12.6523C29.3867 12.7148 29.3516 12.8086 29.2812 12.9336C29.1016 13.2695 29.0117 13.6641 29.0117 14.1172C29.0117 14.5 29.1484 14.8242 29.4219 15.0898C29.6641 15.3242 29.9414 15.4414 30.2539 15.4414C30.5586 15.4414 30.7969 15.3398 30.9688 15.1367C31.1094 14.9648 31.1797 14.7461 31.1797 14.4805C31.1797 14.1523 30.9922 13.7266 30.6172 13.2031C30.1016 12.4844 29.8438 11.832 29.8438 11.2461C29.8438 10.4648 30.2695 9.77344 31.1211 9.17188C31.9492 8.59375 32.8242 8.30469 33.7461 8.30469ZM38.7734 8.53906C38.2656 9.32812 37.7969 10.2109 37.3672 11.1875C36.75 12.5781 36.4414 13.6172 36.4414 14.3047C36.4414 14.5 36.4805 14.6484 36.5586 14.75C36.6445 14.8516 36.7695 14.9023 36.9336 14.9023C37.3242 14.9023 37.7969 14.5352 38.3516 13.8008C38.7031 13.3477 39.0156 12.8945 39.2891 12.4414C39.4375 12.1836 39.5977 12.0547 39.7695 12.0547C39.8711 12.0547 39.957 12.0898 40.0273 12.1602C40.0898 12.2305 40.1211 12.3008 40.1211 12.3711C40.1211 12.6602 39.7422 13.3047 38.9844 14.3047C38.0781 15.5078 37.25 16.1094 36.5 16.1094C36.1016 16.1094 35.7695 15.9258 35.5039 15.5586C35.3398 15.3242 35.2578 14.9922 35.2578 14.5625C35.2578 13.6172 35.5312 12.5156 36.0781 11.2578C36.2109 10.9453 36.5781 10.1914 37.1797 8.99609C36.9688 9.05078 36.8086 9.07812 36.6992 9.07812C36.5352 9.07812 36.3906 9.03906 36.2656 8.96094C36.0938 8.85156 36.0078 8.71484 36.0078 8.55078C36.0078 8.35547 36.1211 8.19922 36.3477 8.08203C36.4102 8.05078 36.6992 8 37.2148 7.92969C37.4023 7.89844 37.6758 7.82422 38.0352 7.70703C38.3086 7.21484 38.7539 6.54688 39.3711 5.70312C39.7148 5.23438 39.9531 4.92969 40.0859 4.78906C40.2734 4.59375 40.4375 4.49609 40.5781 4.49609C40.6797 4.49609 40.7812 4.55078 40.8828 4.66016C40.9766 4.76172 41.0234 4.86328 41.0234 4.96484C41.0234 5.16797 40.8047 5.57031 40.3672 6.17188C40.0781 6.5625 39.8633 6.87891 39.7227 7.12109C40.5898 6.88672 41.2109 6.76953 41.5859 6.76953C42.0156 6.76953 42.2305 6.94922 42.2305 7.30859C42.2305 7.48828 42.1562 7.62109 42.0078 7.70703C41.9297 7.75391 41.7266 7.79297 41.3984 7.82422C41.2656 7.81641 40.6758 7.96484 39.6289 8.26953C39.3398 8.35547 39.0547 8.44531 38.7734 8.53906ZM43.4141 9.06641C43.5469 9.06641 43.6562 9.11719 43.7422 9.21875C43.8047 9.30469 43.8359 9.39062 43.8359 9.47656C43.8359 9.61719 43.7227 9.85156 43.4961 10.1797C42.6836 11.4375 42.1055 12.4727 41.7617 13.2852C41.3945 14.1211 41.0703 14.9805 40.7891 15.8633C40.6641 16.2539 40.4688 16.4492 40.2031 16.4492C40.0469 16.4492 39.9219 16.3867 39.8281 16.2617C39.7422 16.1602 39.6992 16.0508 39.6992 15.9336C39.6992 15.6992 39.9492 14.918 40.4492 13.5898C40.8398 12.543 41.4727 11.3867 42.3477 10.1211C42.6289 9.70703 42.8398 9.42969 42.9805 9.28906C43.1211 9.14062 43.2656 9.06641 43.4141 9.06641ZM45.6406 4.71875C45.9922 4.71875 46.168 4.89844 46.168 5.25781C46.168 5.58594 45.9961 5.94922 45.6523 6.34766C45.3242 6.73047 45.0078 6.92188 44.7031 6.92188C44.5547 6.92188 44.4336 6.86719 44.3398 6.75781C44.2461 6.65625 44.1992 6.53125 44.1992 6.38281C44.1992 6.00781 44.4062 5.60938 44.8203 5.1875C45.125 4.875 45.3984 4.71875 45.6406 4.71875ZM47.75 8.82031C48.3672 8.82031 48.6758 9.14453 48.6758 9.79297C48.6758 10.3633 48.4531 10.9375 48.0078 11.5156C47.6641 11.9531 47.3633 12.1719 47.1055 12.1719C46.8867 12.1719 46.7773 12.0469 46.7773 11.7969C46.7773 11.6641 46.8086 11.5586 46.8711 11.4805C46.8945 11.4492 46.9883 11.3594 47.1523 11.2109C47.293 11.0781 47.4375 10.8789 47.5859 10.6133C47.6875 10.4336 47.7383 10.2891 47.7383 10.1797C47.7383 10.0547 47.668 9.99219 47.5273 9.99219C47.3633 9.99219 47.1133 10.1211 46.7773 10.3789C46.2461 10.793 45.7148 11.4414 45.1836 12.3242C44.6367 13.2461 44.3633 13.9727 44.3633 14.5039C44.3633 14.6758 44.4141 14.8281 44.5156 14.9609C44.6641 15.1641 44.8633 15.2656 45.1133 15.2656C45.6055 15.2656 46.1875 14.9609 46.8594 14.3516C47.4297 13.8281 47.9102 13.3047 48.3008 12.7812C48.5039 12.4922 48.6797 12.3477 48.8281 12.3477C48.9141 12.3477 48.9922 12.3867 49.0625 12.4648C49.125 12.543 49.1562 12.6211 49.1562 12.6992C49.1562 12.9883 48.7852 13.5508 48.043 14.3867C46.8633 15.6992 45.793 16.3555 44.832 16.3555C44.2539 16.3555 43.8125 16.1484 43.5078 15.7344C43.2891 15.4297 43.1797 15.0703 43.1797 14.6562C43.1797 13.8438 43.5156 12.9023 44.1875 11.832C44.8359 10.8086 45.5859 9.98438 46.4375 9.35938C46.9375 9 47.375 8.82031 47.75 8.82031ZM61.7539 7.41406L62.2227 7.33203C63.9492 7.00391 65.1523 6.83984 65.832 6.83984C66.3242 6.83984 66.5703 7.03906 66.5703 7.4375C66.5703 7.6875 66.4727 7.85547 66.2773 7.94141C66.1445 8.00391 65.918 8.04297 65.5977 8.05859C63.5742 8.18359 62.0352 8.42188 60.9805 8.77344C60.5664 9.39062 59.9609 10.543 59.1641 12.2305C58.7031 13.2148 58.3438 14.125 58.0859 14.9609C58.2656 14.8984 58.4414 14.8359 58.6133 14.7734C59.7695 14.3828 60.6211 14.1289 61.168 14.0117C61.8945 13.8711 62.5781 13.8008 63.2188 13.8008C63.6406 13.8008 63.9531 13.8516 64.1562 13.9531C64.3359 14.0391 64.4258 14.2031 64.4258 14.4453C64.4258 14.6875 64.3164 14.8477 64.0977 14.9258C63.9961 14.957 63.7539 14.9766 63.3711 14.9844C61.3008 15.0938 59.457 15.6016 57.8398 16.5078C57.6289 16.625 57.4492 16.6836 57.3008 16.6836C57.082 16.6836 56.8867 16.5703 56.7148 16.3438C56.5664 16.1562 56.4922 15.9648 56.4922 15.7695C56.4922 15.5742 56.7383 14.8555 57.2305 13.6133C57.9727 11.7305 58.9844 9.66797 60.2656 7.42578C60.6484 6.74609 61.375 5.60156 62.4453 3.99219C62.6875 3.61719 62.9219 3.25 63.1484 2.89062C62.8359 2.8125 62.6797 2.60547 62.6797 2.26953C62.6797 2.01953 62.8047 1.83594 63.0547 1.71875C63.4609 1.53125 64.2422 1.34766 65.3984 1.16797C67.125 0.902344 68.5898 0.769531 69.793 0.769531C70.4727 0.769531 70.8125 0.949219 70.8125 1.30859C70.8125 1.55859 70.6953 1.76953 70.4609 1.94141C70.3438 2.02734 70.1562 2.07031 69.8984 2.07031C69.8828 2.07031 69.793 2.06641 69.6289 2.05859C69.5117 2.05859 69.3828 2.05859 69.2422 2.05859C68.6797 2.05859 67.8672 2.11719 66.8047 2.23438C65.8828 2.33594 65.0898 2.48437 64.4258 2.67969C64.5039 2.79688 64.543 2.89062 64.543 2.96094C64.543 3.09375 64.3594 3.39844 63.9922 3.875L63.4297 4.74219C62.625 5.92969 62.0664 6.82031 61.7539 7.41406ZM67.4609 12.1953C67.2266 12.8047 67.0508 13.2969 66.9336 13.6719C66.8164 14.0469 66.7578 14.3086 66.7578 14.457C66.7578 14.6523 66.8516 14.75 67.0391 14.75C67.3203 14.75 67.6836 14.4844 68.1289 13.9531C68.3398 13.6953 68.6523 13.2305 69.0664 12.5586C69.2305 12.293 69.4023 12.1602 69.582 12.1602C69.7852 12.1602 69.8867 12.2578 69.8867 12.4531C69.8867 12.7891 69.5 13.4688 68.7266 14.4922C67.9219 15.5625 67.1758 16.0977 66.4883 16.0977C66.1914 16.0977 65.9492 15.9727 65.7617 15.7227C65.6289 15.543 65.5625 15.3242 65.5625 15.0664C65.5625 14.6289 65.6953 14.0234 65.9609 13.25C66.2266 12.4766 66.6211 11.5352 67.1445 10.4258C68.4883 7.60547 69.8594 5.28125 71.2578 3.45312C72.375 1.98438 73.3008 1.25 74.0352 1.25C74.2695 1.25 74.4609 1.33984 74.6094 1.51953C74.7656 1.69922 74.8438 1.90625 74.8438 2.14062C74.8438 3.23437 73.8672 5.05469 71.9141 7.60156C71.0391 8.73438 69.9922 9.86719 68.7734 11C68.4531 11.2969 68.0156 11.6953 67.4609 12.1953ZM68.293 10.332C69.918 8.94141 71.3711 7.18359 72.6523 5.05859C73.3164 3.95703 73.6484 3.22656 73.6484 2.86719C73.6484 2.69531 73.5742 2.60938 73.4258 2.60938C72.9961 2.60938 72.2148 3.46484 71.082 5.17578C70.1445 6.58203 69.2148 8.30078 68.293 10.332ZM71.6094 13.8359V14.0469C71.6094 14.2188 71.6523 14.3672 71.7383 14.4922C71.9336 14.7812 72.2539 14.9258 72.6992 14.9258C73.6758 14.9258 74.8047 14.1758 76.0859 12.6758C76.3125 12.418 76.5039 12.2891 76.6602 12.2891C76.7461 12.2891 76.8242 12.332 76.8945 12.418C76.9414 12.4805 76.9648 12.5391 76.9648 12.5938C76.9648 12.8984 76.5898 13.4141 75.8398 14.1406C75.2539 14.7109 74.6289 15.1758 73.9648 15.5352C73.3008 15.8945 72.6836 16.0742 72.1133 16.0742C71.5273 16.0742 71.0664 15.8711 70.7305 15.4648C70.5039 15.1836 70.3906 14.8008 70.3906 14.3164C70.3906 12.9961 71.0117 11.7031 72.2539 10.4375C73.2617 9.40625 74.1406 8.89062 74.8906 8.89062C75.0938 8.89062 75.2773 8.95312 75.4414 9.07812C75.6445 9.24219 75.7461 9.45703 75.7461 9.72266C75.7461 10.1367 75.5547 10.6445 75.1719 11.2461C74.3828 12.4961 73.1953 13.3594 71.6094 13.8359ZM71.8672 12.9219C72.4141 12.7344 72.8438 12.5234 73.1562 12.2891C73.7031 11.8672 74.1367 11.3906 74.457 10.8594C74.5742 10.6719 74.6328 10.5039 74.6328 10.3555C74.6328 10.1992 74.5586 10.1211 74.4102 10.1211C74.207 10.1211 73.918 10.2734 73.543 10.5781C72.8711 11.1172 72.3125 11.8984 71.8672 12.9219ZM80.7852 15.0781C81.6211 14.4688 82.2422 13.9141 82.6484 13.4141C83.25 12.6875 83.6758 12.0977 83.9258 11.6445C84.0508 11.4414 84.1797 11.3398 84.3125 11.3398C84.5 11.3398 84.5938 11.4297 84.5938 11.6094C84.5938 11.8203 84.4453 12.1719 84.1484 12.6641C83.2266 14.1641 81.8438 15.4727 80 16.5898C79.1406 18.3867 78.5078 19.6055 78.1016 20.2461C77.0234 21.9336 76.0078 22.7773 75.0547 22.7773C74.5547 22.7773 74.1953 22.582 73.9766 22.1914C73.8516 21.9648 73.7891 21.707 73.7891 21.418C73.7891 20.1914 74.5781 19.0156 76.1562 17.8906C76.4062 17.7031 77.418 17.1172 79.1914 16.1328C79.5352 15.4062 79.8008 14.8359 79.9883 14.4219C79.168 15.2812 78.4883 15.7109 77.9492 15.7109C77.6133 15.7109 77.3516 15.5391 77.1641 15.1953C77.0469 14.9688 76.9883 14.7344 76.9883 14.4922C76.9883 13.9297 77.2188 13.207 77.6797 12.3242C78.3359 11.0508 79.125 10.043 80.0469 9.30078C80.8203 8.68359 81.5039 8.375 82.0977 8.375C82.4023 8.375 82.6641 8.48828 82.8828 8.71484C83.0312 8.86328 83.1055 9.08203 83.1055 9.37109C83.1055 9.73047 82.9844 10.1758 82.7422 10.707C82.9219 10.8789 83.0117 11.0078 83.0117 11.0938C83.0117 11.1484 82.9727 11.2266 82.8945 11.3281C82.6836 11.6172 82.3438 12.1602 81.875 12.957C81.4609 13.6523 81.0977 14.3594 80.7852 15.0781ZM80.7031 12.3711C80.5938 12.2539 80.5391 12.1719 80.5391 12.125C80.5391 12.0547 80.5977 11.9648 80.7148 11.8555C81.1055 11.4805 81.4219 11.0898 81.6641 10.6836C81.8594 10.3633 81.957 10.1133 81.957 9.93359C81.957 9.72266 81.8594 9.61719 81.6641 9.61719C81.3281 9.61719 80.8477 9.9375 80.2227 10.5781C79.4805 11.3359 78.9023 12.1836 78.4883 13.1211C78.2852 13.5898 78.1836 13.9492 78.1836 14.1992C78.1836 14.3398 78.2148 14.4453 78.2773 14.5156C78.3398 14.5859 78.4297 14.6211 78.5469 14.6211C78.8203 14.6211 79.2031 14.3398 79.6953 13.7773C80.0078 13.418 80.2734 13.0664 80.4922 12.7227C80.6406 12.4961 80.7109 12.3789 80.7031 12.3711ZM78.4883 17.4922C77.457 17.9297 76.5469 18.5938 75.7578 19.4844C75.3906 19.8984 75.1289 20.3359 74.9727 20.7969C74.9258 20.9375 74.9023 21.0547 74.9023 21.1484C74.9023 21.25 74.9258 21.3398 74.9727 21.418C75.0586 21.5586 75.1797 21.6289 75.3359 21.6289C75.8203 21.6289 76.3867 21.1094 77.0352 20.0703C77.5977 19.1719 78.082 18.3125 78.4883 17.4922ZM88.0625 14.1523C87.8047 14.6055 87.5508 14.9883 87.3008 15.3008C86.8086 15.9102 86.3203 16.2148 85.8359 16.2148C85.4141 16.2148 85.0859 16.0156 84.8516 15.6172C84.7031 15.3594 84.6289 15.0547 84.6289 14.7031C84.6289 13.8359 84.9023 12.8789 85.4492 11.832C86.0586 10.668 86.793 9.77344 87.6523 9.14844C88.2148 8.74219 88.7578 8.53906 89.2812 8.53906C89.6094 8.53906 89.8828 8.64062 90.1016 8.84375C90.2891 9.02344 90.3828 9.22656 90.3828 9.45312C90.3828 9.625 90.3164 9.86328 90.1836 10.168C90.3008 10.332 90.3594 10.4766 90.3594 10.6016C90.3594 10.7656 90.25 11.0352 90.0312 11.4102C89.8047 11.793 89.5781 12.3008 89.3516 12.9336C89.1094 13.6055 88.9883 14.1445 88.9883 14.5508C88.9883 14.8789 89.0859 15.1484 89.2812 15.3594C89.3359 15.4141 89.4961 15.5039 89.7617 15.6289C89.957 15.7227 90.0547 15.8867 90.0547 16.1211C90.0547 16.2695 90 16.3906 89.8906 16.4844C89.7734 16.5859 89.6367 16.6367 89.4805 16.6367C89.0586 16.6367 88.6953 16.4492 88.3906 16.0742C88.1406 15.7695 88.0156 15.3867 88.0156 14.9258C88.0156 14.7695 88.0312 14.5117 88.0625 14.1523ZM89.5273 10.2969C89.4336 10.125 89.332 10 89.2227 9.92188C89.1133 9.83594 88.9961 9.79297 88.8711 9.79297C88.2773 9.79297 87.6328 10.3125 86.9375 11.3516C86.1719 12.5 85.7891 13.4727 85.7891 14.2695C85.7891 14.4648 85.8242 14.6133 85.8945 14.7148C85.9727 14.8164 86.0859 14.8672 86.2344 14.8672C86.6094 14.8672 87.0469 14.4688 87.5469 13.6719C87.8281 13.2344 88.1758 12.5898 88.5898 11.7383C88.8633 11.1836 89.0625 10.8164 89.1875 10.6367C89.25 10.543 89.3633 10.4297 89.5273 10.2969ZM92.9961 12.0664C93.0977 11.9727 93.1953 11.8789 93.2891 11.7852C94.9219 10.1914 96.0156 9.39453 96.5703 9.39453C96.875 9.39453 97.0273 9.5625 97.0273 9.89844C97.0273 10.1328 96.8906 10.4102 96.6172 10.7305C95.125 12.4727 94.3789 14.0078 94.3789 15.3359C94.3789 15.7656 94.4961 16.1758 94.7305 16.5664C94.8398 16.7461 94.8945 16.8867 94.8945 16.9883C94.8945 17.082 94.8477 17.1719 94.7539 17.2578C94.6523 17.3672 94.5312 17.4219 94.3906 17.4219C94.0703 17.4219 93.8008 17.2188 93.582 16.8125C93.3711 16.4297 93.2656 15.9648 93.2656 15.418C93.2656 14.3633 93.6641 13.1953 94.4609 11.9141C93.3984 12.5938 92.4102 13.7969 91.4961 15.5234C91.2617 15.9375 91.0117 16.1445 90.7461 16.1445C90.6133 16.1445 90.5039 16.0977 90.418 16.0039C90.3086 15.8945 90.2539 15.7539 90.2539 15.582C90.2539 15.1602 90.7344 14.0547 91.6953 12.2656C92.2109 11.2969 92.6172 10.5938 92.9141 10.1562C93.2109 9.72656 93.4648 9.51172 93.6758 9.51172C93.7773 9.51172 93.875 9.55859 93.9688 9.65234C94.0781 9.76172 94.1328 9.88672 94.1328 10.0273C94.1328 10.1992 94.0195 10.4453 93.793 10.7656C93.4648 11.2422 93.1992 11.6758 92.9961 12.0664ZM101.258 8.82031C101.875 8.82031 102.184 9.14453 102.184 9.79297C102.184 10.3633 101.961 10.9375 101.516 11.5156C101.172 11.9531 100.871 12.1719 100.613 12.1719C100.395 12.1719 100.285 12.0469 100.285 11.7969C100.285 11.6641 100.316 11.5586 100.379 11.4805C100.402 11.4492 100.496 11.3594 100.66 11.2109C100.801 11.0781 100.945 10.8789 101.094 10.6133C101.195 10.4336 101.246 10.2891 101.246 10.1797C101.246 10.0547 101.176 9.99219 101.035 9.99219C100.871 9.99219 100.621 10.1211 100.285 10.3789C99.7539 10.793 99.2227 11.4414 98.6914 12.3242C98.1445 13.2461 97.8711 13.9727 97.8711 14.5039C97.8711 14.6758 97.9219 14.8281 98.0234 14.9609C98.1719 15.1641 98.3711 15.2656 98.6211 15.2656C99.1133 15.2656 99.6953 14.9609 100.367 14.3516C100.938 13.8281 101.418 13.3047 101.809 12.7812C102.012 12.4922 102.188 12.3477 102.336 12.3477C102.422 12.3477 102.5 12.3867 102.57 12.4648C102.633 12.543 102.664 12.6211 102.664 12.6992C102.664 12.9883 102.293 13.5508 101.551 14.3867C100.371 15.6992 99.3008 16.3555 98.3398 16.3555C97.7617 16.3555 97.3203 16.1484 97.0156 15.7344C96.7969 15.4297 96.6875 15.0703 96.6875 14.6562C96.6875 13.8438 97.0234 12.9023 97.6953 11.832C98.3438 10.8086 99.0938 9.98438 99.9453 9.35938C100.445 9 100.883 8.82031 101.258 8.82031ZM104.492 13.8359V14.0469C104.492 14.2188 104.535 14.3672 104.621 14.4922C104.816 14.7812 105.137 14.9258 105.582 14.9258C106.559 14.9258 107.688 14.1758 108.969 12.6758C109.195 12.418 109.387 12.2891 109.543 12.2891C109.629 12.2891 109.707 12.332 109.777 12.418C109.824 12.4805 109.848 12.5391 109.848 12.5938C109.848 12.8984 109.473 13.4141 108.723 14.1406C108.137 14.7109 107.512 15.1758 106.848 15.5352C106.184 15.8945 105.566 16.0742 104.996 16.0742C104.41 16.0742 103.949 15.8711 103.613 15.4648C103.387 15.1836 103.273 14.8008 103.273 14.3164C103.273 12.9961 103.895 11.7031 105.137 10.4375C106.145 9.40625 107.023 8.89062 107.773 8.89062C107.977 8.89062 108.16 8.95312 108.324 9.07812C108.527 9.24219 108.629 9.45703 108.629 9.72266C108.629 10.1367 108.438 10.6445 108.055 11.2461C107.266 12.4961 106.078 13.3594 104.492 13.8359ZM104.75 12.9219C105.297 12.7344 105.727 12.5234 106.039 12.2891C106.586 11.8672 107.02 11.3906 107.34 10.8594C107.457 10.6719 107.516 10.5039 107.516 10.3555C107.516 10.1992 107.441 10.1211 107.293 10.1211C107.09 10.1211 106.801 10.2734 106.426 10.5781C105.754 11.1172 105.195 11.8984 104.75 12.9219ZM122.094 14.3047C121.562 14.6719 121.137 14.9453 120.816 15.125C120.082 15.5469 119.445 15.7578 118.906 15.7578C118.273 15.7578 117.75 15.4492 117.336 14.832C117.039 14.3867 116.891 13.875 116.891 13.2969C116.891 11.6875 117.594 9.8125 119 7.67188C120.305 5.69531 121.816 3.99219 123.535 2.5625C124.941 1.39062 126.148 0.804688 127.156 0.804688C127.664 0.804688 128.078 1.01953 128.398 1.44922C128.641 1.77734 128.762 2.16406 128.762 2.60938C128.762 3.96875 128.098 5.37891 126.77 6.83984C125.754 7.95703 124.984 8.51562 124.461 8.51562C124.344 8.51562 124.227 8.46875 124.109 8.375C123.984 8.26562 123.922 8.13672 123.922 7.98828C123.922 7.79297 124.094 7.55469 124.438 7.27344C125.32 6.5625 126.039 5.83594 126.594 5.09375C127.461 3.94531 127.895 3.03516 127.895 2.36328C127.895 2.18359 127.828 2.03906 127.695 1.92969C127.57 1.82812 127.418 1.77734 127.238 1.77734C126.824 1.77734 126.27 2.01953 125.574 2.50391C124.121 3.52734 122.688 4.96094 121.273 6.80469C120.359 8 119.598 9.23438 118.988 10.5078C118.457 11.625 118.191 12.5391 118.191 13.25C118.191 13.5312 118.281 13.7969 118.461 14.0469C118.703 14.3828 119.02 14.5508 119.41 14.5508C119.965 14.5508 120.648 14.2578 121.461 13.6719C122.477 12.9375 123.203 12.3477 123.641 11.9023C124.008 11.5273 124.285 11.3398 124.473 11.3398C124.605 11.3398 124.715 11.3906 124.801 11.4922C124.91 11.625 124.965 11.7891 124.965 11.9844C124.965 12.2031 124.832 12.4922 124.566 12.8516C124.293 13.2109 123.871 13.8789 123.301 14.8555C122.645 15.9727 122.039 17.1836 121.484 18.4883C120.992 19.6367 120.695 20.4141 120.594 20.8203C120.508 21.1641 120.41 21.4102 120.301 21.5586C120.184 21.7148 120.004 21.793 119.762 21.793C119.559 21.793 119.402 21.7227 119.293 21.582C119.199 21.457 119.152 21.3086 119.152 21.1367C119.152 20.4727 119.539 19.3242 120.312 17.6914C120.438 17.4336 120.832 16.6836 121.496 15.4414C121.629 15.1914 121.828 14.8125 122.094 14.3047ZM129.195 14.1523C128.938 14.6055 128.684 14.9883 128.434 15.3008C127.941 15.9102 127.453 16.2148 126.969 16.2148C126.547 16.2148 126.219 16.0156 125.984 15.6172C125.836 15.3594 125.762 15.0547 125.762 14.7031C125.762 13.8359 126.035 12.8789 126.582 11.832C127.191 10.668 127.926 9.77344 128.785 9.14844C129.348 8.74219 129.891 8.53906 130.414 8.53906C130.742 8.53906 131.016 8.64062 131.234 8.84375C131.422 9.02344 131.516 9.22656 131.516 9.45312C131.516 9.625 131.449 9.86328 131.316 10.168C131.434 10.332 131.492 10.4766 131.492 10.6016C131.492 10.7656 131.383 11.0352 131.164 11.4102C130.938 11.793 130.711 12.3008 130.484 12.9336C130.242 13.6055 130.121 14.1445 130.121 14.5508C130.121 14.8789 130.219 15.1484 130.414 15.3594C130.469 15.4141 130.629 15.5039 130.895 15.6289C131.09 15.7227 131.188 15.8867 131.188 16.1211C131.188 16.2695 131.133 16.3906 131.023 16.4844C130.906 16.5859 130.77 16.6367 130.613 16.6367C130.191 16.6367 129.828 16.4492 129.523 16.0742C129.273 15.7695 129.148 15.3867 129.148 14.9258C129.148 14.7695 129.164 14.5117 129.195 14.1523ZM130.66 10.2969C130.566 10.125 130.465 10 130.355 9.92188C130.246 9.83594 130.129 9.79297 130.004 9.79297C129.41 9.79297 128.766 10.3125 128.07 11.3516C127.305 12.5 126.922 13.4727 126.922 14.2695C126.922 14.4648 126.957 14.6133 127.027 14.7148C127.105 14.8164 127.219 14.8672 127.367 14.8672C127.742 14.8672 128.18 14.4688 128.68 13.6719C128.961 13.2344 129.309 12.5898 129.723 11.7383C129.996 11.1836 130.195 10.8164 130.32 10.6367C130.383 10.543 130.496 10.4297 130.66 10.2969ZM133.883 12.1953C133.648 12.8047 133.473 13.2969 133.355 13.6719C133.238 14.0469 133.18 14.3086 133.18 14.457C133.18 14.6523 133.273 14.75 133.461 14.75C133.742 14.75 134.105 14.4844 134.551 13.9531C134.762 13.6953 135.074 13.2305 135.488 12.5586C135.652 12.293 135.824 12.1602 136.004 12.1602C136.207 12.1602 136.309 12.2578 136.309 12.4531C136.309 12.7891 135.922 13.4688 135.148 14.4922C134.344 15.5625 133.598 16.0977 132.91 16.0977C132.613 16.0977 132.371 15.9727 132.184 15.7227C132.051 15.543 131.984 15.3242 131.984 15.0664C131.984 14.6289 132.117 14.0234 132.383 13.25C132.648 12.4766 133.043 11.5352 133.566 10.4258C134.91 7.60547 136.281 5.28125 137.68 3.45312C138.797 1.98438 139.723 1.25 140.457 1.25C140.691 1.25 140.883 1.33984 141.031 1.51953C141.188 1.69922 141.266 1.90625 141.266 2.14062C141.266 3.23437 140.289 5.05469 138.336 7.60156C137.461 8.73438 136.414 9.86719 135.195 11C134.875 11.2969 134.438 11.6953 133.883 12.1953ZM134.715 10.332C136.34 8.94141 137.793 7.18359 139.074 5.05859C139.738 3.95703 140.07 3.22656 140.07 2.86719C140.07 2.69531 139.996 2.60938 139.848 2.60938C139.418 2.60938 138.637 3.46484 137.504 5.17578C136.566 6.58203 135.637 8.30078 134.715 10.332ZM139.039 12.1953C138.805 12.8047 138.629 13.2969 138.512 13.6719C138.395 14.0469 138.336 14.3086 138.336 14.457C138.336 14.6523 138.43 14.75 138.617 14.75C138.898 14.75 139.262 14.4844 139.707 13.9531C139.918 13.6953 140.23 13.2305 140.645 12.5586C140.809 12.293 140.98 12.1602 141.16 12.1602C141.363 12.1602 141.465 12.2578 141.465 12.4531C141.465 12.7891 141.078 13.4688 140.305 14.4922C139.5 15.5625 138.754 16.0977 138.066 16.0977C137.77 16.0977 137.527 15.9727 137.34 15.7227C137.207 15.543 137.141 15.3242 137.141 15.0664C137.141 14.6289 137.273 14.0234 137.539 13.25C137.805 12.4766 138.199 11.5352 138.723 10.4258C140.066 7.60547 141.438 5.28125 142.836 3.45312C143.953 1.98438 144.879 1.25 145.613 1.25C145.848 1.25 146.039 1.33984 146.188 1.51953C146.344 1.69922 146.422 1.90625 146.422 2.14062C146.422 3.23437 145.445 5.05469 143.492 7.60156C142.617 8.73438 141.57 9.86719 140.352 11C140.031 11.2969 139.594 11.6953 139.039 12.1953ZM139.871 10.332C141.496 8.94141 142.949 7.18359 144.23 5.05859C144.895 3.95703 145.227 3.22656 145.227 2.86719C145.227 2.69531 145.152 2.60938 145.004 2.60938C144.574 2.60938 143.793 3.46484 142.66 5.17578C141.723 6.58203 140.793 8.30078 139.871 10.332ZM143.188 13.8359V14.0469C143.188 14.2188 143.23 14.3672 143.316 14.4922C143.512 14.7812 143.832 14.9258 144.277 14.9258C145.254 14.9258 146.383 14.1758 147.664 12.6758C147.891 12.418 148.082 12.2891 148.238 12.2891C148.324 12.2891 148.402 12.332 148.473 12.418C148.52 12.4805 148.543 12.5391 148.543 12.5938C148.543 12.8984 148.168 13.4141 147.418 14.1406C146.832 14.7109 146.207 15.1758 145.543 15.5352C144.879 15.8945 144.262 16.0742 143.691 16.0742C143.105 16.0742 142.645 15.8711 142.309 15.4648C142.082 15.1836 141.969 14.8008 141.969 14.3164C141.969 12.9961 142.59 11.7031 143.832 10.4375C144.84 9.40625 145.719 8.89062 146.469 8.89062C146.672 8.89062 146.855 8.95312 147.02 9.07812C147.223 9.24219 147.324 9.45703 147.324 9.72266C147.324 10.1367 147.133 10.6445 146.75 11.2461C145.961 12.4961 144.773 13.3594 143.188 13.8359ZM143.445 12.9219C143.992 12.7344 144.422 12.5234 144.734 12.2891C145.281 11.8672 145.715 11.3906 146.035 10.8594C146.152 10.6719 146.211 10.5039 146.211 10.3555C146.211 10.1992 146.137 10.1211 145.988 10.1211C145.785 10.1211 145.496 10.2734 145.121 10.5781C144.449 11.1172 143.891 11.8984 143.445 12.9219ZM150.992 12.2305C151.758 11.4102 152.641 10.6094 153.641 9.82812C154 9.54688 154.383 9.28516 154.789 9.04297C154.992 8.92578 155.121 8.86719 155.176 8.86719C155.293 8.86719 155.41 8.95312 155.527 9.125C155.598 9.21875 155.633 9.30469 155.633 9.38281C155.633 9.52344 155.484 9.71484 155.188 9.95703C154.391 10.5898 153.992 11.0664 153.992 11.3867C153.992 11.5664 154.094 11.6562 154.297 11.6562C154.633 11.6562 155.211 11.3789 156.031 10.8242C156.172 10.7305 156.289 10.6836 156.383 10.6836C156.445 10.6836 156.508 10.7148 156.57 10.7773C156.641 10.8477 156.676 10.9219 156.676 11C156.676 11.2344 156.348 11.5938 155.691 12.0781C155.004 12.5938 154.352 12.8516 153.734 12.8516C153.484 12.8516 153.254 12.7852 153.043 12.6523C152.863 12.543 152.773 12.3477 152.773 12.0664C152.773 11.8711 152.855 11.6484 153.02 11.3984C152.402 11.8359 151.676 12.5859 150.84 13.6484C150.355 14.3047 149.875 15.1133 149.398 16.0742C149.219 16.4336 148.996 16.6133 148.73 16.6133C148.441 16.6133 148.297 16.4766 148.297 16.2031C148.297 15.9375 148.523 15.2266 148.977 14.0703C149.648 12.3516 150.352 11.0195 151.086 10.0742C151.539 9.48828 151.918 9.19531 152.223 9.19531C152.324 9.19531 152.418 9.22656 152.504 9.28906C152.605 9.36719 152.656 9.46484 152.656 9.58203C152.656 9.69922 152.578 9.86328 152.422 10.0742C152.391 10.1133 152.184 10.375 151.801 10.8594C151.449 11.3203 151.18 11.7773 150.992 12.2305ZM160.402 12.8047C159.707 13.625 159.152 14.2344 158.738 14.6328C157.918 15.4141 157.234 15.8047 156.688 15.8047C156.422 15.8047 156.211 15.707 156.055 15.5117C155.938 15.3555 155.879 15.1602 155.879 14.9258C155.879 14.082 156.379 12.9609 157.379 11.5625C158.395 10.1406 159.129 9.42969 159.582 9.42969C159.707 9.42969 159.816 9.48438 159.91 9.59375C159.996 9.67969 160.039 9.78125 160.039 9.89844C160.039 10.0703 159.992 10.2227 159.898 10.3555C159.812 10.4805 159.559 10.7656 159.137 11.2109C158.691 11.6719 158.281 12.1719 157.906 12.7109C157.477 13.3203 157.262 13.7656 157.262 14.0469C157.262 14.2109 157.34 14.293 157.496 14.293C157.809 14.293 158.395 13.8672 159.254 13.0156C159.793 12.4766 160.215 12.0234 160.52 11.6562C160.582 11.5781 160.855 11.207 161.34 10.543C161.777 9.95703 162.047 9.60938 162.148 9.5C162.383 9.22656 162.602 9.08984 162.805 9.08984C162.93 9.08984 163.043 9.14453 163.145 9.25391C163.238 9.35547 163.285 9.47266 163.285 9.60547C163.285 9.83203 163.129 10.2109 162.816 10.7422C162.441 11.3906 162.098 11.9961 161.785 12.5586C161.293 13.4336 160.914 14.2148 160.648 14.9023C161.148 14.6133 161.605 14.2578 162.02 13.8359C162.723 13.1328 163.152 12.6094 163.309 12.2656C163.457 11.9531 163.609 11.7969 163.766 11.7969C163.984 11.7969 164.094 11.9062 164.094 12.125C164.094 12.5391 163.742 13.1562 163.039 13.9766C162.195 14.9609 161.156 15.7969 159.922 16.4844C159.266 18.0625 158.645 19.3711 158.059 20.4102C156.965 22.3242 155.836 23.2812 154.672 23.2812C154.195 23.2812 153.812 23.0977 153.523 22.7305C153.297 22.4492 153.184 22.0938 153.184 21.6641C153.184 20.4453 154.039 19.1992 155.75 17.9258C156.25 17.5508 156.992 17.082 157.977 16.5195C158.375 16.293 158.688 16.1094 158.914 15.9688C159.055 15.6094 159.27 15.1328 159.559 14.5391C159.879 13.8984 160.16 13.3203 160.402 12.8047ZM158.246 17.4102C157.418 17.832 156.57 18.4336 155.703 19.2148C154.828 20.0195 154.391 20.7695 154.391 21.4648C154.391 21.6133 154.434 21.7383 154.52 21.8398C154.637 21.9805 154.789 22.0508 154.977 22.0508C155.562 22.0508 156.211 21.4375 156.922 20.2109C157.039 20.0078 157.359 19.332 157.883 18.1836C157.992 17.9492 158.113 17.6914 158.246 17.4102Z" fill="#0000CD"/>
</svg>
