<svg width="24" height="24" viewBox="0 0 24 24" fill="none" xmlns="http://www.w3.org/2000/svg">
<path fill-rule="evenodd" clip-rule="evenodd" d="M11.9964 0.75293C7.45911 0.75293 3.75431 4.46449 3.75431 9.001V12.0023C3.75431 14.3092 2.8506 16.2591 2.48537 16.9896C1.75191 18.4595 2.86035 20.2444 4.50127 20.2444H8.32457C8.67255 21.9528 10.192 23.2488 11.9994 23.2488C13.8068 23.2488 15.3262 21.9528 15.6742 20.2444H19.4975C21.1384 20.2444 22.2393 18.4565 21.5074 16.9896C21.1444 16.2621 20.2459 14.31 20.2459 12.0023V9.001C20.2459 4.46374 16.5336 0.75293 11.9964 0.75293ZM11.9964 2.24685C15.7162 2.24685 18.7505 5.28044 18.7505 9.001V12.0023C18.7505 14.6947 19.772 16.8711 20.168 17.6646C20.4304 18.191 20.0847 18.7505 19.4975 18.7505H4.50127C3.90955 18.7505 3.56232 18.1933 3.8263 17.6653C4.22153 16.8726 5.24823 14.6955 5.24823 12.0023V9.001C5.24823 5.27969 8.27582 2.24685 11.9964 2.24685ZM11.9964 3.74677C9.10153 3.74677 6.74815 6.1054 6.74815 9.001C6.74815 9.1999 6.82716 9.39066 6.96781 9.5313C7.10845 9.67195 7.29921 9.75096 7.49811 9.75096C7.69701 9.75096 7.88777 9.67195 8.02841 9.5313C8.16906 9.39066 8.24807 9.1999 8.24807 9.001C8.24459 8.50758 8.33913 8.01839 8.52621 7.5618C8.71329 7.10521 8.98918 6.69031 9.33788 6.3412C9.68658 5.99208 10.1011 5.71569 10.5575 5.52806C11.0139 5.34043 11.503 5.2453 11.9964 5.2482C12.1955 5.2482 12.3864 5.1691 12.5272 5.02832C12.668 4.88753 12.7471 4.69659 12.7471 4.49749C12.7471 4.29838 12.668 4.10744 12.5272 3.96665C12.3864 3.82587 12.1955 3.74677 11.9964 3.74677ZM7.49961 11.2494C7.30071 11.2494 7.10995 11.3284 6.96931 11.469C6.82866 11.6097 6.74965 11.8004 6.74965 11.9993C6.74965 12.1982 6.82866 12.389 6.96931 12.5296C7.10995 12.6703 7.30071 12.7493 7.49961 12.7493C7.69851 12.7493 7.88927 12.6703 8.02991 12.5296C8.17056 12.389 8.24957 12.1982 8.24957 11.9993C8.24957 11.8004 8.17056 11.6097 8.02991 11.469C7.88927 11.3284 7.69851 11.2494 7.49961 11.2494ZM9.88449 20.2444H14.1143C13.9628 20.6845 13.6774 21.0661 13.2982 21.3359C12.9189 21.6057 12.4648 21.7501 11.9994 21.7488C11.534 21.7501 11.0798 21.6057 10.7006 21.3359C10.3213 21.0661 10.036 20.6845 9.88449 20.2444Z" fill="black"/>
</svg>
