<svg width="16" height="16" viewBox="0 0 16 16" fill="none" xmlns="http://www.w3.org/2000/svg">
<path d="M14.69 2.16251C14.7312 2.11472 14.7529 2.05312 14.7505 1.99006C14.7482 1.92699 14.7221 1.86714 14.6775 1.82251L14.1775 1.32251C14.1329 1.2779 14.073 1.25182 14.01 1.2495C13.9469 1.24718 13.8853 1.2688 13.8375 1.31001L11.8375 3.00751C11.75 2.91501 11.665 2.82001 11.5725 2.73001L11.4375 2.59501C10.9348 2.0891 10.3368 1.6877 9.6782 1.41395C9.01958 1.1402 8.31328 0.99952 7.60003 1.00001C6.68304 0.998308 5.78049 1.22844 4.97627 1.66901C4.17205 2.10959 3.49224 2.74631 3.00003 3.52001C1.68835 5.58377 0.994382 7.97969 1.00003 10.425C1.00004 11.4557 1.34808 12.4562 1.98777 13.2644C2.62745 14.0726 3.5213 14.6411 4.52446 14.8777C5.52762 15.1144 6.58131 15.0054 7.51478 14.5684C8.44826 14.1314 9.20681 13.392 9.66753 12.47C9.74198 12.3217 9.85058 12.1933 9.98439 12.0952C10.1182 11.9971 10.2734 11.9322 10.4372 11.9058C10.601 11.8795 10.7687 11.8924 10.9266 11.9435C11.0844 11.9947 11.2278 12.0826 11.345 12.2L11.555 12.41C11.8372 12.6925 12.1968 12.885 12.5884 12.963C12.98 13.041 13.386 13.001 13.7548 12.8482C14.1237 12.6953 14.4389 12.4364 14.6606 12.1043C14.8823 11.7722 15.0004 11.3818 15 10.9825C15.0042 8.58392 14.2644 6.24307 12.8825 4.28251L14.69 2.16251ZM13.9875 1.84001L14.16 2.01251L8.73503 8.38251L7.61753 7.26501L13.9875 1.84001ZM14.5 10.9825C14.4998 11.2825 14.4107 11.5757 14.2439 11.825C14.0772 12.0744 13.8403 12.2687 13.5631 12.3835C13.286 12.4983 12.981 12.5283 12.6868 12.4698C12.3926 12.4114 12.1223 12.267 11.91 12.055L11.7 11.845C11.5265 11.6714 11.3141 11.5416 11.0804 11.4662C10.8467 11.3909 10.5985 11.3723 10.3562 11.4118C10.1139 11.4514 9.88453 11.5481 9.68697 11.6938C9.48941 11.8395 9.32936 12.0302 9.22003 12.25C8.80928 13.0718 8.13288 13.7306 7.30062 14.1197C6.46835 14.5087 5.52904 14.6051 4.63511 14.3932C3.74118 14.1813 2.94508 13.6735 2.37599 12.9523C1.8069 12.2311 1.49822 11.3387 1.50003 10.42C1.49794 8.07118 2.1676 5.77073 3.43003 3.79001C3.82702 3.16551 4.35924 2.63817 4.98738 2.24696C5.61552 1.85575 6.32352 1.61065 7.05909 1.52977C7.79465 1.4489 8.539 1.53431 9.23713 1.7797C9.93526 2.02509 10.5693 2.42418 11.0925 2.94751L11.2275 3.08251C11.3075 3.16251 11.385 3.24751 11.465 3.33251L7.08753 7.06001C7.06117 7.08237 7.03974 7.10995 7.02458 7.14101C7.00942 7.17207 7.00086 7.20594 6.99945 7.24047C6.99804 7.27501 7.00381 7.30946 7.01639 7.34165C7.02897 7.37384 7.04808 7.40308 7.07253 7.42751L8.57253 8.92751C8.59589 8.95068 8.6236 8.96901 8.65406 8.98145C8.68452 8.99389 8.71713 9.0002 8.75003 9.00001C8.78445 8.99861 8.8182 8.99011 8.84917 8.97506C8.88015 8.96 8.90768 8.93871 8.93003 8.91251L12.5475 4.67751C13.8229 6.53244 14.5039 8.73143 14.5 10.9825Z" fill="#101828"/>
<path d="M8 3.5C8.14834 3.5 8.29334 3.45601 8.41668 3.3736C8.54001 3.29119 8.63614 3.17406 8.69291 3.03701C8.74967 2.89997 8.76453 2.74917 8.73559 2.60368C8.70665 2.4582 8.63522 2.32456 8.53033 2.21967C8.42544 2.11478 8.2918 2.04335 8.14632 2.01441C8.00083 1.98547 7.85003 2.00032 7.71299 2.05709C7.57594 2.11386 7.45881 2.20999 7.3764 2.33332C7.29399 2.45666 7.25 2.60166 7.25 2.75C7.25 2.94891 7.32902 3.13968 7.46967 3.28033C7.61032 3.42098 7.80109 3.5 8 3.5ZM8 2.5C8.04945 2.5 8.09778 2.51466 8.13889 2.54213C8.18 2.5696 8.21205 2.60865 8.23097 2.65433C8.24989 2.70001 8.25484 2.75028 8.2452 2.79877C8.23555 2.84727 8.21174 2.89181 8.17678 2.92678C8.14181 2.96174 8.09727 2.98555 8.04877 2.9952C8.00028 3.00484 7.95001 2.99989 7.90433 2.98097C7.85865 2.96205 7.8196 2.93001 7.79213 2.88889C7.76466 2.84778 7.75 2.79945 7.75 2.75C7.75 2.6837 7.77634 2.62011 7.82322 2.57322C7.87011 2.52634 7.9337 2.5 8 2.5ZM6 5C6.19778 5 6.39112 4.94135 6.55557 4.83147C6.72002 4.72159 6.84819 4.56541 6.92388 4.38268C6.99957 4.19996 7.01937 3.99889 6.98079 3.80491C6.9422 3.61093 6.84696 3.43275 6.70711 3.29289C6.56725 3.15304 6.38907 3.0578 6.19509 3.01921C6.00111 2.98063 5.80004 3.00043 5.61732 3.07612C5.43459 3.15181 5.27841 3.27998 5.16853 3.44443C5.05865 3.60888 5 3.80222 5 4C5 4.26522 5.10536 4.51957 5.29289 4.70711C5.48043 4.89464 5.73478 5 6 5ZM6 3.5C6.09889 3.5 6.19556 3.52932 6.27779 3.58427C6.36001 3.63921 6.4241 3.7173 6.46194 3.80866C6.49978 3.90002 6.50969 4.00056 6.49039 4.09755C6.4711 4.19454 6.42348 4.28363 6.35355 4.35355C6.28363 4.42348 6.19454 4.4711 6.09755 4.49039C6.00055 4.50969 5.90002 4.49978 5.80866 4.46194C5.7173 4.4241 5.63921 4.36001 5.58427 4.27779C5.52932 4.19556 5.5 4.09889 5.5 4C5.5 3.86739 5.55268 3.74022 5.64645 3.64645C5.74021 3.55268 5.86739 3.5 6 3.5ZM4.25 7.5C4.49723 7.5 4.7389 7.42669 4.94446 7.28934C5.15002 7.15199 5.31024 6.95676 5.40485 6.72835C5.49946 6.49995 5.52421 6.24861 5.47598 6.00614C5.42775 5.76366 5.3087 5.54093 5.13388 5.36612C4.95907 5.1913 4.73634 5.07225 4.49386 5.02402C4.25139 4.97579 4.00005 5.00054 3.77165 5.09515C3.54324 5.18976 3.34801 5.34998 3.21066 5.55554C3.07331 5.7611 3 6.00277 3 6.25C3 6.58152 3.1317 6.89946 3.36612 7.13388C3.60054 7.3683 3.91848 7.5 4.25 7.5ZM4.25 5.5C4.39834 5.5 4.54334 5.54399 4.66668 5.6264C4.79001 5.70881 4.88614 5.82594 4.94291 5.96299C4.99968 6.10003 5.01453 6.25083 4.98559 6.39632C4.95665 6.5418 4.88522 6.67544 4.78033 6.78033C4.67544 6.88522 4.5418 6.95665 4.39632 6.98559C4.25083 7.01453 4.10003 6.99968 3.96299 6.94291C3.82594 6.88614 3.70881 6.79001 3.6264 6.66668C3.54399 6.54334 3.5 6.39834 3.5 6.25C3.5 6.05109 3.57902 5.86032 3.71967 5.71967C3.86032 5.57902 4.05109 5.5 4.25 5.5ZM6.535 8.25C6.27913 8.16348 6.00412 8.15042 5.7412 8.21228C5.47827 8.27415 5.23795 8.40847 5.0475 8.6L4.955 8.6925C4.8816 8.76586 4.82338 8.85297 4.78365 8.94884C4.74393 9.04471 4.72348 9.14747 4.72348 9.25125C4.72348 9.35503 4.74393 9.45779 4.78365 9.55366C4.82338 9.64953 4.8816 9.73664 4.955 9.81C4.98993 9.8449 5.01536 9.88814 5.0289 9.93562C5.04244 9.9831 5.04363 10.0332 5.03237 10.0813C5.0211 10.1294 4.99775 10.1738 4.96452 10.2103C4.9313 10.2468 4.8893 10.2743 4.8425 10.29L3.4225 10.7625C3.37248 10.7789 3.32893 10.8108 3.29806 10.8534C3.26718 10.896 3.25056 10.9474 3.25056 11C3.25056 11.0526 3.26718 11.104 3.29806 11.1466C3.32893 11.1892 3.37248 11.2211 3.4225 11.2375L4.7125 11.6675C5.04801 11.7806 5.4026 11.826 5.75577 11.8011C6.10894 11.7762 6.45367 11.6815 6.77 11.5225C7.08425 11.3654 7.34481 11.1186 7.5187 10.8134C7.69259 10.5081 7.77198 10.1581 7.74681 9.80767C7.72165 9.45725 7.59307 9.12218 7.37734 8.84489C7.16162 8.5676 6.86847 8.36057 6.535 8.25ZM6.535 11.075C6.2776 11.2047 5.99703 11.2822 5.70952 11.3028C5.42201 11.3234 5.13326 11.2867 4.86 11.195L4.29 11L5 10.7625C5.12773 10.72 5.24249 10.6456 5.33339 10.5463C5.42428 10.447 5.48829 10.3261 5.51934 10.1951C5.5504 10.0641 5.54747 9.9274 5.51083 9.79787C5.47419 9.66834 5.40506 9.55031 5.31 9.455C5.25565 9.40062 5.22512 9.32688 5.22512 9.25C5.22512 9.17312 5.25565 9.09938 5.31 9.045L5.4025 8.9525C5.52729 8.82689 5.68479 8.73876 5.85712 8.69811C6.02945 8.65746 6.20973 8.66591 6.3775 8.7225C6.61749 8.80176 6.82852 8.95056 6.98377 9.15C7.13902 9.34944 7.23149 9.59053 7.24944 9.84263C7.26739 10.0947 7.21001 10.3465 7.08458 10.5659C6.95915 10.7853 6.77134 10.9625 6.545 11.075H6.535Z" fill="#101828"/>
</svg>
