<svg width="16" height="17" viewBox="0 0 16 17" fill="none" xmlns="http://www.w3.org/2000/svg">
<path d="M8.25602 13.94C5.26402 13.94 2.84802 11.508 2.84802 8.53202C2.84802 5.54002 5.28002 3.12402 8.25602 3.12402C11.232 3.12402 13.664 5.55602 13.664 8.53202C13.664 11.508 11.248 13.94 8.25602 13.94ZM8.25602 3.70002C5.60002 3.70002 3.42402 5.86002 3.42402 8.51602C3.42402 11.172 5.58402 13.348 8.25602 13.348C10.928 13.348 13.088 11.188 13.088 8.51602C13.088 5.86002 10.912 3.70002 8.25602 3.70002Z" fill="white"/>
<path d="M10.176 10.7241C10.096 10.7241 10.032 10.6921 9.96802 10.6441L8.04802 8.72412C8.00002 8.67612 7.96802 8.59612 7.96802 8.51612V5.01212C7.96802 4.85212 8.09602 4.72412 8.25602 4.72412C8.41602 4.72412 8.54402 4.85212 8.54402 5.01212V8.40412L10.368 10.2281C10.48 10.3401 10.48 10.5321 10.368 10.6441C10.32 10.6921 10.24 10.7241 10.176 10.7241Z" fill="white"/>
</svg>
