<svg xmlns="http://www.w3.org/2000/svg" width="25" height="24" viewBox="0 0 25 24" fill="none">
  <g clip-path="url(#clip0_64_6232)">
    <path d="M5.81891 14.5036L4.9835 17.6223L1.93011 17.6869C1.01759 15.9944 0.5 14.0579 0.5 12.0001C0.5 10.0102 0.983938 8.13374 1.84175 6.48145H1.84241L4.56078 6.97982L5.75159 9.68188C5.50236 10.4085 5.36652 11.1885 5.36652 12.0001C5.36661 12.881 5.52617 13.725 5.81891 14.5036Z" fill="#FBBB00"/>
    <path d="M24.2903 9.75781C24.4281 10.4837 24.5 11.2334 24.5 11.9996C24.5 12.8587 24.4097 13.6967 24.2376 14.5051C23.6534 17.2558 22.127 19.6578 20.0125 21.3576L20.0119 21.3569L16.588 21.1822L16.1034 18.1572C17.5064 17.3343 18.6029 16.0466 19.1805 14.5051H12.7638V9.75781H24.2903Z" fill="#518EF8"/>
    <path d="M20.0118 21.3577L20.0125 21.3584C17.956 23.0113 15.3437 24.0004 12.4999 24.0004C7.93005 24.0004 3.95688 21.4461 1.93005 17.6872L5.81885 14.5039C6.83224 17.2085 9.44126 19.1338 12.4999 19.1338C13.8146 19.1338 15.0463 18.7784 16.1032 18.158L20.0118 21.3577Z" fill="#28B446"/>
    <path d="M20.1596 2.76262L16.2721 5.94525C15.1783 5.26153 13.8853 4.86656 12.5 4.86656C9.37213 4.86656 6.71431 6.88017 5.75169 9.68175L1.84245 6.48131H1.8418C3.83895 2.63077 7.86223 0 12.5 0C15.4117 0 18.0814 1.03716 20.1596 2.76262Z" fill="#F14336"/>
  </g>
  <defs>
    <clipPath id="clip0_64_6232">
      <rect width="24" height="24" fill="white" transform="translate(0.5)"/>
    </clipPath>
  </defs>
</svg>