<svg width="45" height="11" viewBox="0 0 45 11" fill="none" xmlns="http://www.w3.org/2000/svg">
<path d="M5.25988 10.084C4.52255 10.084 3.83655 9.96267 3.20188 9.72C2.57655 9.468 2.03055 9.118 1.56388 8.67C1.10655 8.21267 0.747216 7.68533 0.485883 7.088C0.233883 6.48133 0.107883 5.81867 0.107883 5.1C0.107883 4.38133 0.233883 3.72333 0.485883 3.126C0.747216 2.51933 1.10655 1.992 1.56388 1.544C2.03055 1.08667 2.57655 0.736666 3.20188 0.494C3.82722 0.242 4.51322 0.116 5.25988 0.116C5.99722 0.116 6.67855 0.242 7.30388 0.494C7.92922 0.736666 8.47055 1.082 8.92788 1.53C9.39455 1.978 9.75388 2.50533 10.0059 3.112C10.2672 3.71867 10.3979 4.38133 10.3979 5.1C10.3979 5.81867 10.2672 6.48133 10.0059 7.088C9.75388 7.69467 9.39455 8.222 8.92788 8.67C8.47055 9.118 7.92922 9.468 7.30388 9.72C6.67855 9.96267 5.99722 10.084 5.25988 10.084ZM5.25988 9.16C5.84788 9.16 6.38922 9.062 6.88388 8.866C7.38788 8.66067 7.82188 8.376 8.18588 8.012C8.55922 7.63867 8.84855 7.20933 9.05388 6.724C9.25922 6.22933 9.36188 5.688 9.36188 5.1C9.36188 4.512 9.25922 3.97533 9.05388 3.49C8.84855 2.99533 8.55922 2.566 8.18588 2.202C7.82188 1.82867 7.38788 1.544 6.88388 1.348C6.38922 1.14267 5.84788 1.04 5.25988 1.04C4.67188 1.04 4.12588 1.14267 3.62188 1.348C3.11788 1.544 2.67922 1.82867 2.30588 2.202C1.94188 2.566 1.65255 2.99533 1.43788 3.49C1.23255 3.97533 1.12988 4.512 1.12988 5.1C1.12988 5.67867 1.23255 6.21533 1.43788 6.71C1.65255 7.20467 1.94188 7.63867 2.30588 8.012C2.67922 8.376 3.11788 8.66067 3.62188 8.866C4.12588 9.062 4.67188 9.16 5.25988 9.16ZM15.562 10.07C14.834 10.07 14.1807 9.91133 13.602 9.594C13.0327 9.26733 12.5847 8.824 12.258 8.264C11.9314 7.69467 11.768 7.046 11.768 6.318C11.768 5.58067 11.9314 4.932 12.258 4.372C12.5847 3.812 13.0327 3.37333 13.602 3.056C14.1807 2.73867 14.834 2.58 15.562 2.58C16.1874 2.58 16.752 2.70133 17.256 2.944C17.76 3.18667 18.1567 3.55067 18.446 4.036L17.704 4.54C17.452 4.16667 17.1394 3.89133 16.766 3.714C16.3927 3.53667 15.9867 3.448 15.548 3.448C15.0254 3.448 14.554 3.56933 14.134 3.812C13.714 4.04533 13.3827 4.37667 13.14 4.806C12.8974 5.23533 12.776 5.73933 12.776 6.318C12.776 6.89667 12.8974 7.40067 13.14 7.83C13.3827 8.25933 13.714 8.59533 14.134 8.838C14.554 9.07133 15.0254 9.188 15.548 9.188C15.9867 9.188 16.3927 9.09933 16.766 8.922C17.1394 8.74467 17.452 8.474 17.704 8.11L18.446 8.614C18.1567 9.09 17.76 9.454 17.256 9.706C16.752 9.94867 16.1874 10.07 15.562 10.07ZM22.8047 10.07C22.1141 10.07 21.5821 9.88333 21.2087 9.51C20.8354 9.13667 20.6487 8.60933 20.6487 7.928V1.026H21.6427V7.872C21.6427 8.30133 21.7501 8.63267 21.9647 8.866C22.1887 9.09933 22.5061 9.216 22.9167 9.216C23.3554 9.216 23.7194 9.09 24.0087 8.838L24.3587 9.552C24.1627 9.72933 23.9247 9.86 23.6447 9.944C23.3741 10.028 23.0941 10.07 22.8047 10.07ZM19.3327 3.476V2.65H23.8827V3.476H19.3327ZM28.9923 10V9.286L33.0663 5.296C33.4396 4.932 33.7196 4.61467 33.9063 4.344C34.093 4.064 34.219 3.80267 34.2843 3.56C34.3496 3.31733 34.3823 3.08867 34.3823 2.874C34.3823 2.30467 34.1863 1.85667 33.7943 1.53C33.4116 1.20333 32.8423 1.04 32.0863 1.04C31.5076 1.04 30.9943 1.12867 30.5463 1.306C30.1076 1.48333 29.7296 1.75867 29.4123 2.132L28.6983 1.516C29.081 1.068 29.571 0.722666 30.1683 0.48C30.7656 0.237333 31.433 0.116 32.1703 0.116C32.833 0.116 33.407 0.223333 33.8923 0.438C34.3776 0.643333 34.751 0.946666 35.0123 1.348C35.283 1.74933 35.4183 2.22067 35.4183 2.762C35.4183 3.07933 35.3716 3.392 35.2783 3.7C35.1943 4.008 35.0356 4.33467 34.8023 4.68C34.5783 5.016 34.247 5.39867 33.8083 5.828L30.0703 9.496L29.7903 9.104H35.8663V10H28.9923ZM38.826 10L43.054 0.647999L43.362 1.096H37.3L37.818 0.606V2.93H36.824V0.199999H44.02V0.913999L39.918 10H38.826Z" fill="white"/>
</svg>
