<svg width="16" height="17" viewBox="0 0 16 17" fill="none" xmlns="http://www.w3.org/2000/svg">
<g id="Love auction" clip-path="url(#clip0_1260_1027)">
<path id="Vector" d="M5.51287 2.99695C4.42377 2.99759 3.41573 3.34459 2.68485 4.02868C1.95373 4.71233 1.51321 5.72933 1.51315 6.99722C1.51325 8.32738 2.44836 9.56405 3.71589 10.7785C4.98343 11.9929 6.614 13.1912 8.10685 14.4349C8.19486 14.5053 8.33149 14.5049 8.41912 14.4347C9.91144 13.1915 11.5381 11.989 12.8098 10.7786C14.0814 9.56807 15.0286 8.34168 15.0286 6.99762C15.0287 5.71583 14.5726 4.70893 13.841 4.02862C13.1097 3.34807 12.1162 2.99732 11.0284 2.9972C9.90925 2.99673 8.96378 3.70311 8.26282 4.419C7.56511 3.70754 6.62931 2.9967 5.51287 2.99695Z" fill="#FF5555"/>
</g>
<defs>
<clipPath id="clip0_1260_1027">
<rect width="16" height="16" fill="white" transform="translate(0 0.5)"/>
</clipPath>
</defs>
</svg>
