<svg width="13" height="10" viewBox="0 0 13 10" fill="none" xmlns="http://www.w3.org/2000/svg">
<path d="M10.7148 4.526V5.674H12.2408V6.458H10.7148V10H9.56682L6.71082 6.458H3.67282V10H2.28682V6.458H0.76082V5.674H2.28682V4.526H0.76082V3.742H2.28682V0.199999H3.43482L6.27682 3.742H9.31482V0.199999H10.7148V3.742H12.2408V4.526H10.7148ZM3.67282 3.742H4.52682L3.67282 2.678V3.742ZM6.08082 5.674L5.15682 4.526H3.67282V5.674H6.08082ZM9.31482 4.526H6.90682L7.83082 5.674H9.31482V4.526ZM9.31482 6.458H8.46082L9.31482 7.522V6.458Z" fill="#EB5757"/>
</svg>
