<svg width="24" height="24" viewBox="0 0 24 24" fill="none" xmlns="http://www.w3.org/2000/svg">
<g clip-path="url(#clip0_61_4517)">
<path d="M20.4 2.39999C20.7108 2.39999 21.0123 2.43937 21.3 2.51341V5.09999H23.8866C23.9606 5.38765 24 5.68922 24 5.99999C24 6.31073 23.9606 6.61235 23.8866 6.89999H21.3V9.48659C21.0123 9.56063 20.7108 9.59999 20.4 9.59999C20.0892 9.59999 19.7876 9.56063 19.5 9.48659V6.89999H16.9134C16.8393 6.61235 16.8 6.31073 16.8 5.99999C16.8 5.68922 16.8393 5.38765 16.9134 5.09999H19.5V2.51341C19.7876 2.43937 20.0892 2.39999 20.4 2.39999ZM12.6 13.5C12.6 14.8255 11.5254 15.9 10.2 15.9C8.87453 15.9 7.79999 14.8255 7.79999 13.5C7.79999 12.1745 8.87453 11.1 10.2 11.1C11.5254 11.1 12.6 12.1745 12.6 13.5Z" fill="black"/>
<path fill-rule="evenodd" clip-rule="evenodd" d="M2.40002 11.8367C2.40002 10.6412 2.40002 10.0434 2.68977 9.59658C2.78384 9.4515 2.89831 9.32076 3.02966 9.20838C3.43427 8.86212 4.02679 8.7831 5.21183 8.62512L6.90002 8.4L7.76552 7.0152C8.04056 6.57516 8.17808 6.35514 8.38034 6.21456C8.44688 6.16836 8.51792 6.12894 8.59244 6.09702C8.81882 6 9.07826 6 9.5972 6H10.8028C11.3218 6 11.5812 6 11.8076 6.09702C11.8821 6.12894 11.9532 6.16836 12.0197 6.21456C12.222 6.35514 12.3595 6.57516 12.6345 7.0152L13.5 8.4L15.1882 8.62512C16.3732 8.7831 16.9658 8.86212 17.3704 9.20838C17.5017 9.32076 17.6162 9.4515 17.7103 9.59658C18 10.0434 18 10.6412 18 11.8367V15.96C18 17.3099 18 17.9849 17.6563 18.458C17.5452 18.6109 17.4108 18.7452 17.2581 18.8563C16.7849 19.2 16.1099 19.2 14.76 19.2H5.64002C4.29012 19.2 3.61517 19.2 3.14201 18.8563C2.9892 18.7452 2.85482 18.6109 2.74379 18.458C2.40002 17.9849 2.40002 17.3099 2.40002 15.96V11.8367ZM16.8 10.95C16.8 11.3642 16.4643 11.7 16.05 11.7C15.6358 11.7 15.3 11.3642 15.3 10.95C15.3 10.5358 15.6358 10.2 16.05 10.2C16.4643 10.2 16.8 10.5358 16.8 10.95ZM14.4 13.5C14.4 15.8196 12.5196 17.7 10.2 17.7C7.88042 17.7 6.00002 15.8196 6.00002 13.5C6.00002 11.1804 7.88042 9.3 10.2 9.3C12.5196 9.3 14.4 11.1804 14.4 13.5Z" fill="black"/>
<path d="M3.59998 7.08C3.59998 6.63006 3.59998 6.40506 3.71456 6.24732C3.75157 6.19638 3.79637 6.15162 3.8473 6.1146C4.00502 6 4.23001 6 4.67998 6H4.91998C5.36995 6 5.59493 6 5.75265 6.1146C5.80358 6.15162 5.84838 6.19638 5.88539 6.24732C5.99998 6.40506 5.99998 6.63006 5.99998 7.08V7.32L3.59998 7.65V7.08Z" fill="black"/>
</g>
<defs>
<clipPath id="clip0_61_4517">
<rect width="24" height="24" fill="white"/>
</clipPath>
</defs>
</svg>
